<svg width="21" height="17" viewBox="0 0 21 17" fill="none" xmlns="http://www.w3.org/2000/svg">
<path d="M18.813 0H2.18695C0.983689 0 0 0.992701 0 2.20699V14.793C0 16.0073 0.983689 17 2.18695 17H18.813C20.0163 17 21 16.0073 21 14.793V2.20699C21 0.992701 20.0163 0 18.813 0ZM2.18695 1.33837H18.813C19.2873 1.33837 19.6738 1.72836 19.6738 2.20699V3.27059L10.6098 6.79823L1.32622 3.36809V2.20699C1.32622 1.72836 1.71267 1.33837 2.18695 1.33837ZM18.813 15.6528H2.18695C1.71267 15.6528 1.32622 15.2628 1.32622 14.7842V4.80396L10.6186 8.2341L19.665 4.71533V14.793C19.6738 15.2628 19.2873 15.6528 18.813 15.6528Z" fill="black"/>
</svg>
