<svg width="19" height="19" viewBox="0 0 19 19" fill="none" xmlns="http://www.w3.org/2000/svg">
<g clip-path="url(#clip0)">
<path d="M13.8894 19.0001C12.8229 19.0001 11.7326 18.7787 10.6819 18.3518C4.18792 15.703 1.50185 10.5715 0.640732 8.49202C0.316823 7.70135 0.111418 6.91067 0.0403157 6.15952C-0.259892 3.12332 1.18585 1.22569 2.07857 0.363852C2.59208 -0.134275 3.4216 -0.126369 3.92722 0.387572L7.94052 4.4991C8.06693 4.62561 8.13013 4.80746 8.11433 4.98932C8.01953 6.1279 7.1663 6.76835 6.54219 7.09252C7.92472 9.94687 10.5871 11.718 11.7168 12.3743C12.5542 11.0696 13.8815 10.7929 13.9447 10.7771C14.1501 10.7376 14.3634 10.8008 14.5135 10.951L18.6216 15.0309C19.0561 15.4658 19.1351 16.1458 18.8112 16.6518C18.0054 17.9169 16.6387 18.6997 14.869 18.9369C14.5451 18.9764 14.2133 19.0001 13.8894 19.0001ZM2.99499 1.25732C2.97919 1.25732 2.96339 1.26523 2.95549 1.27313C2.22867 1.97684 1.04364 3.53447 1.28855 6.04092C1.35175 6.67346 1.52555 7.33763 1.80206 8.01762C2.59998 9.95478 5.09645 14.7226 11.1559 17.1895C12.333 17.6718 13.5576 17.8457 14.7031 17.6876C16.1093 17.5058 17.1364 16.9207 17.7447 15.9718C17.7526 15.9639 17.7447 15.9402 17.7289 15.9165L13.8973 12.1054C13.526 12.2636 12.9019 12.6431 12.5542 13.4654C12.491 13.6235 12.3567 13.75 12.1987 13.8133C12.0407 13.8765 11.859 13.8686 11.701 13.7975C11.5035 13.7026 6.9214 11.4808 5.11225 6.99764C5.05695 6.8316 5.06485 6.64184 5.14385 6.4837C5.22285 6.32557 5.36506 6.20696 5.53886 6.15952C5.54676 6.15952 6.55799 5.86697 6.81079 5.14746L3.02659 1.27313C3.01869 1.25732 3.00289 1.25732 2.99499 1.25732Z" fill="black"/>
</g>
<defs>
<clipPath id="clip0">
<rect width="19" height="19" fill="white"/>
</clipPath>
</defs>
</svg>
