<?xml version="1.0" standalone="no"?>
<!DOCTYPE svg PUBLIC "-//W3C//DTD SVG 20010904//EN"
 "http://www.w3.org/TR/2001/REC-SVG-20010904/DTD/svg10.dtd">
<svg version="1.0" xmlns="http://www.w3.org/2000/svg"
 width="700.000000pt" height="700.000000pt" viewBox="0 0 700.000000 700.000000"
 preserveAspectRatio="xMidYMid meet">
<metadata>
Created by potrace 1.11, written by Peter Selinger 2001-2013
</metadata>
<g transform="translate(0.000000,700.000000) scale(0.100000,-0.100000)"
fill="#000000" stroke="none">
<path d="M3265 6789 c-1527 -96 -2814 -1208 -3099 -2677 -55 -282 -74 -664
-46 -937 122 -1214 899 -2253 2045 -2733 273 -115 562 -192 886 -239 178 -25
700 -25 878 0 324 47 613 124 886 239 1145 479 1923 1520 2045 2733 17 163 14
506 -5 670 -128 1110 -801 2070 -1810 2581 -427 216 -863 333 -1355 364 -182
11 -234 11 -425 -1z m2097 -1249 c20 -6 50 -26 67 -46 l31 -35 0 -1063 0
-1064 44 -6 c104 -16 226 -107 278 -209 45 -89 48 -135 48 -787 0 -670 -3
-702 -56 -801 -36 -65 -110 -134 -182 -167 -56 -27 -60 -27 -267 -27 l-210 0
-60 29 c-33 17 -81 51 -106 76 l-46 46 -184 -43 c-261 -61 -503 -110 -654
-130 -111 -15 -211 -18 -675 -18 -476 0 -559 2 -658 18 -240 38 -409 98 -562
199 -177 116 -215 157 -864 928 -97 116 -132 179 -146 267 -32 196 102 397
299 448 l46 11 5 1151 5 1152 30 31 c16 17 43 35 60 39 44 13 3710 14 3757 1z"/>
<path d="M1782 4998 l3 -283 560 0 560 0 0 280 0 280 -563 3 -562 2 2 -282z"/>
<path d="M4050 4995 l0 -285 570 0 570 0 0 285 0 285 -570 0 -570 0 0 -285z"/>
<path d="M3190 4995 l0 -275 290 0 290 0 0 275 0 275 -290 0 -290 0 0 -275z"/>
<path d="M1780 3777 l0 -664 34 -24 c19 -13 142 -138 273 -277 l238 -253 7 88
c3 48 13 108 22 132 36 99 139 196 241 226 38 12 121 15 402 15 231 0 371 4
401 11 26 7 116 43 201 81 279 125 401 154 616 145 175 -8 283 -36 475 -127
84 -39 154 -69 155 -68 1 2 15 27 30 57 51 103 167 190 274 207 l41 7 0 553 0
554 -570 0 -569 0 -3 -267 c-3 -250 -4 -270 -23 -295 -43 -58 -40 -58 -552
-58 -447 0 -469 1 -500 20 -60 36 -63 51 -63 340 l0 260 -565 0 -565 0 0 -663z"/>
<path d="M3190 4265 l0 -175 290 0 290 0 0 175 0 175 -290 0 -290 0 0 -175z"/>
<path d="M5155 3038 c-56 -44 -55 -35 -55 -707 0 -679 0 -678 58 -718 38 -26
294 -27 333 -1 60 39 59 26 59 716 0 392 -4 641 -10 657 -5 14 -22 37 -36 50
-26 24 -32 25 -174 25 -136 0 -149 -2 -175 -22z"/>
<path d="M4000 2975 c-82 -18 -124 -34 -280 -105 -245 -112 -199 -104 -653
-110 l-399 -5 -29 -33 c-29 -32 -29 -34 -29 -152 l0 -120 625 0 c676 0 670 1
712 -54 49 -61 33 -148 -36 -193 l-34 -23 -681 0 c-754 0 -758 1 -889 64 -98
47 -146 91 -417 379 -128 137 -246 255 -261 263 -58 29 -124 12 -173 -46 -31
-38 -35 -102 -9 -140 40 -58 666 -790 719 -841 162 -155 314 -233 538 -276 80
-16 158 -18 651 -18 595 0 643 3 900 52 138 26 554 121 567 129 4 3 8 232 8
510 l0 505 -189 93 c-103 51 -219 101 -257 111 -93 24 -297 30 -384 10z"/>
</g>
</svg>
